<svg height="404.6875" width="404.6875" style="width: 404.688px; height: 404.688px; position: absolute; top: 50%; left: 50%; transform: translate(-50%, -50%) scale(1); z-index: 0; cursor: pointer;"><defs id="SvgjsDefs1001"><linearGradient id="SvgjsLinearGradient1013"><stop id="SvgjsStop1014" stop-color="#8f5e25" offset="0"></stop><stop id="SvgjsStop1015" stop-color="#fbf4a1" offset="0.5"></stop><stop id="SvgjsStop1016" stop-color="#8f5e25" offset="1"></stop></linearGradient></defs><g id="SvgjsG1007" featurekey="rootContainer" transform="matrix(8.013613861386139,0,0,8.013613861386139,0,0.08013080805540085)" fill="url(#SvgjsLinearGradient1013)"><path xmlns="http://www.w3.org/2000/svg" d="M25.25 50.49A25.25 25.25 0 1 1 50.5 25.24a25.28 25.28 0 0 1-25.25 25.25zm0-50.14a24.89 24.89 0 1 0 24.89 24.89A24.92 24.92 0 0 0 25.25.35z"></path></g><g id="SvgjsG1008" featurekey="symbolFeature-0" transform="matrix(0.7713052972298627,0,0,0.7713052972298627,164.1434735138507,35.14347351385068)" fill="#ffffff"><path xmlns="http://www.w3.org/2000/svg" d="M50,5C25.1,5,5,25.1,5,50s20.1,45,45,45s45-20.1,45-45S74.9,5,50,5z M65.1,59.3l9.4-9.4L65,40.6c-0.5-0.4-0.7-1-0.7-1.6  c0-0.7,0.3-1.3,0.8-1.9c0.4-0.5,1-0.7,1.6-0.7c0,0,0,0,0.1,0c0.7,0,1.3,0.3,1.8,0.8L81.4,50L68.5,62.9c-0.9,0.9-2.5,0.9-3.5,0l0,0  c-0.4-0.4-0.7-1-0.7-1.6C64.3,60.6,64.5,59.9,65.1,59.3z M44,69.7c-0.2,0-0.5-0.1-0.8-0.2c-1.2-0.4-1.9-1.8-1.5-3.2l12-34.4l0,0  c0.2-0.6,0.6-1.1,1.2-1.4c0.3-0.2,0.7-0.2,1-0.2c0.3,0,0.6,0.1,0.9,0.2c1.2,0.4,1.9,1.8,1.5,3.2L46.3,68C46,69,45,69.7,44,69.7z   M34.9,40.6L25.6,50l9.4,9.4c0.5,0.4,0.7,1,0.7,1.6c0,0.7-0.3,1.3-0.8,1.8c-0.5,0.5-1.1,0.8-1.7,0.8c-0.6,0-1.3-0.3-1.7-0.8L18.6,50  l12.9-12.9c0.4-0.5,1-0.7,1.6-0.7c0.7,0,1.3,0.3,1.9,0.8c0.5,0.4,0.7,1,0.7,1.6C35.7,39.5,35.4,40.1,34.9,40.6z"></path></g><g id="SvgjsG1009" featurekey="nameFeature-0" transform="matrix(6.067961122911224,0,0,6.067961122911224,131.52427416502198,89.18446652506532)" fill="#ffffff"><path d="M20.48 18.44 l-11.2 0 l0 4.36 l8.04 0 l0 6.4 l-8.04 0 l0 10.8 l-6.4 0 l0 -28 l17.6 0 l0 6.44 z"></path></g></svg>